<svg width="74" height="13" viewBox="0 0 74 13" fill="none" xmlns="http://www.w3.org/2000/svg">
<path d="M9.4739 0.642283L9.38793 4.2311L6.82602 4.33267L6.17265 12.3567L2.54471 12.5429L2.56191 4.51888L0 4.65431L0.103164 0.659211L9.4739 0.642283Z" fill="white"/>
<path d="M18.0881 0.540712C18.0537 1.07113 18.0222 1.59591 17.9935 2.11505C17.9649 2.63419 17.9276 3.15897 17.8818 3.68939L14.2366 3.8756L14.1507 4.94209H16.7126L16.5234 7.56599L13.9443 7.65063L13.8584 8.8864H17.5035C17.4691 9.50711 17.4319 10.125 17.3917 10.7401C17.3574 11.3495 17.3258 11.9617 17.2972 12.5768L9.88656 12.7461L10.1617 0.540712H18.0881Z" fill="white"/>
<path d="M31.68 0.405285L30.889 12.8307L26.9688 13L27.0032 6.44872L25.2322 11.7304H23.7191L22.3608 7.00735L22.3436 12.4921L18.3718 12.6106L18.5437 0.913137L22.9626 0.743853L24.7164 6.34715L27.0548 0.405285H31.68Z" fill="white"/>
<path d="M42.3317 4.60352C42.3317 5.15087 42.2486 5.63615 42.0823 6.05936C41.9161 6.48257 41.6869 6.85218 41.3946 7.16817C41.108 7.48417 40.7699 7.7522 40.3801 7.97227C39.9904 8.19234 39.572 8.37291 39.125 8.51398C38.6837 8.64941 38.2252 8.75098 37.7495 8.81869C37.2738 8.88076 36.8067 8.91462 36.3481 8.92026V12.8646H32.3419C32.3419 11.5724 32.3448 10.2858 32.3505 9.0049C32.3563 7.72399 32.3649 6.43179 32.3763 5.1283C32.3878 4.43988 32.3907 3.75146 32.3849 3.06304C32.3792 2.37462 32.3935 1.68056 32.4279 0.98085C33.1615 0.766424 33.8951 0.605604 34.6287 0.498391C35.3624 0.391178 36.1189 0.337572 36.8984 0.337572C37.3397 0.337572 37.781 0.37425 38.2223 0.447606C38.6636 0.51532 39.0849 0.625354 39.4861 0.77771C39.893 0.930065 40.2684 1.12192 40.6123 1.35327C40.9619 1.57899 41.2628 1.84984 41.5149 2.16584C41.7671 2.48183 41.9649 2.84297 42.1081 3.24925C42.2572 3.64989 42.3317 4.10131 42.3317 4.60352ZM38.5146 4.89131C38.5146 4.52452 38.4 4.23956 38.1707 4.03642C37.9472 3.82764 37.6549 3.72325 37.2938 3.72325C37.1735 3.72325 37.0474 3.73453 36.9155 3.7571C36.7895 3.77403 36.6691 3.7966 36.5545 3.82482L36.4513 6.29636C36.5315 6.30765 36.6089 6.31329 36.6834 6.31329C36.7579 6.31329 36.8353 6.31329 36.9155 6.31329C37.1219 6.31329 37.3196 6.27943 37.5087 6.21172C37.7036 6.14401 37.8755 6.04808 38.0246 5.92394C38.1736 5.79415 38.2911 5.64462 38.377 5.47533C38.4687 5.30041 38.5146 5.10573 38.5146 4.89131Z" fill="white"/>
<path d="M50.3613 7.92149L50.0002 11.6796L42.7615 12.2382C42.7959 10.2689 42.8332 8.31084 42.8733 6.36407C42.9191 4.41731 42.9736 2.45926 43.0366 0.489927H47.5071C47.3752 1.7257 47.2491 2.96147 47.1288 4.19724C47.0084 5.42737 46.9225 6.66879 46.8709 7.92149C47.1403 7.93277 47.4068 7.93841 47.6704 7.93841C47.934 7.93841 48.2006 7.93841 48.4699 7.93841C48.7909 7.93841 49.1061 7.93559 49.4156 7.92995C49.7251 7.92431 50.0403 7.92149 50.3613 7.92149Z" fill="white"/>
<path d="M61.6062 12.0182L57.342 12.5599L56.8262 10.647H54.8661L54.4362 12.5599L50.0518 12.1367L53.4734 0.862352L58.2533 0.625354L61.6062 12.0182ZM56.5167 8.05691L55.8633 5.11138L55.2272 8.05691H56.5167Z" fill="white"/>
<path d="M74 6.37304C74 9.89277 71.1019 12.7461 67.527 12.7461C63.952 12.7461 61.0539 9.89277 61.0539 6.37304C61.0539 2.85331 63.952 0 67.527 0C71.1019 0 74 2.85331 74 6.37304Z" fill="white"/>
<path d="M71.4108 6.37304C71.4108 8.48488 69.6719 10.1969 67.527 10.1969C65.382 10.1969 63.6431 8.48488 63.6431 6.37304C63.6431 4.2612 65.382 2.54921 67.527 2.54921C69.6719 2.54921 71.4108 4.2612 71.4108 6.37304Z" fill="#1E293B"/>
<path d="M70.3751 6.15604C70.3751 7.82456 69.0999 9.17717 67.527 9.17717C65.954 9.17717 64.6788 7.82456 64.6788 6.15604C64.6788 4.48751 65.954 7.16305 67.527 7.16305C69.0999 7.16305 70.3751 4.48751 70.3751 6.15604Z" fill="white"/>
</svg>
